<svg id="Layer_1" data-name="Layer 1" xmlns="http://www.w3.org/2000/svg" viewBox="0 0 628.87 522.58"><defs><style>.cls-1{fill:#fff;}</style></defs><path class="cls-1" d="M829.38,717H200.52V194.42H829.38ZM210.92,706.63H819V204.8H210.92Z" transform="translate(-200.52 -194.42)"/><rect class="cls-1" x="3.24" y="102.84" width="620.43" height="10.37"/><path class="cls-1" d="M295.17,258.15A28.25,28.25,0,1,1,266.92,230,28.21,28.21,0,0,1,295.17,258.15Z" transform="translate(-200.52 -194.42)"/><path class="cls-1" d="M363.27,258.15A28.25,28.25,0,1,1,335,230,28.21,28.21,0,0,1,363.27,258.15Z" transform="translate(-200.52 -194.42)"/><path class="cls-1" d="M429.86,258.15A28.26,28.26,0,1,1,401.6,230,28.22,28.22,0,0,1,429.86,258.15Z" transform="translate(-200.52 -194.42)"/><polygon class="cls-1" points="43.39 346.38 134.72 415.35 220.97 323.8 267.31 400.3 267.31 451.87 43.39 451.87 43.39 346.38"/><path class="cls-1" d="M476.12,651.48H235.62v-240h240.5ZM252.94,634.19H458.8V428.75H252.94Z" transform="translate(-200.52 -194.42)"/><path class="cls-1" d="M325.69,538.38a20.16,20.16,0,1,1,20.19-20.16A20.2,20.2,0,0,1,325.69,538.38Zm0-26.48a6.33,6.33,0,1,0,6.33,6.32A6.34,6.34,0,0,0,325.69,511.9Z" transform="translate(-200.52 -194.42)"/><path class="cls-1" d="M791.77,457.58H515a5.19,5.19,0,1,1,0-10.37H791.77a5.19,5.19,0,1,1,0,10.37Z" transform="translate(-200.52 -194.42)"/><path class="cls-1" d="M791.77,510.17H515a5.19,5.19,0,1,1,0-10.37H791.77a5.19,5.19,0,1,1,0,10.37Z" transform="translate(-200.52 -194.42)"/><path class="cls-1" d="M791.77,562.77H515a5.19,5.19,0,1,1,0-10.38H791.77a5.19,5.19,0,1,1,0,10.38Z" transform="translate(-200.52 -194.42)"/></svg>