<svg id="Layer_1" data-name="Layer 1" xmlns="http://www.w3.org/2000/svg" viewBox="0 0 553.72 513.24"><defs><style>.cls-1{fill:#93d2c0;}</style></defs><path class="cls-1" d="M346.84,673.74A17.29,17.29,0,0,0,329.53,691c0,17.27,17.31,28.23,17.31,28.23s17.31-12.78,17.31-28.23A17.29,17.29,0,0,0,346.84,673.74Zm0,24.81a7.54,7.54,0,1,1,7.55-7.53A7.54,7.54,0,0,1,346.84,698.55Z" transform="translate(-257.35 -268.76)"/><path class="cls-1" d="M364,467.68a4.32,4.32,0,0,0-.4-4.64,14.76,14.76,0,0,0-1.28-1.37l-2.12-2.12a3.28,3.28,0,0,0-3.34-.65,4.74,4.74,0,0,0-1.93,1.18c-2,2-4.43.63-6-.3a20.21,20.21,0,0,1-5.65-5.13c-1.32-1.71-3.94-5.13-1.41-7.65a4.71,4.71,0,0,0,1.18-1.92,3.25,3.25,0,0,0-.66-3.33l-2.12-2.11a13.52,13.52,0,0,0-1.37-1.28,4.36,4.36,0,0,0-4.65-.41c-2.88,1.43-5.22,4.44-5,7.43a6.83,6.83,0,0,0,.9,3.09,48.59,48.59,0,0,0,6.34,8.07q3.69,4.06,7.74,7.76c1.83,1.67,3.68,3.32,5.61,4.89a19.33,19.33,0,0,0,3.7,2.62,8.5,8.5,0,0,0,3.1.9C359.57,472.89,362.58,470.55,364,467.68Z" transform="translate(-257.35 -268.76)"/><path class="cls-1" d="M347.12,561.37A17.63,17.63,0,1,0,364.78,579,17.65,17.65,0,0,0,347.12,561.37Zm0,32.83a15.18,15.18,0,0,1-11.23-5,10.48,10.48,0,0,0,2.31,0c.94-.07,2.09-.33,2.37-1.23.38-1.26-1.29-2.55-.74-3.74a2.21,2.21,0,0,1,1-.89l2-1.25-3.94-.9a3.48,3.48,0,0,1,1-3.22,7.16,7.16,0,0,1,2.76-1.37c.33-.11.74-.37.62-.71a.6.6,0,0,0-.35-.31,15.57,15.57,0,0,1-2.2-1.1,1.89,1.89,0,0,1-.79-2.13c.14-.32.42-.64.3-1a1.17,1.17,0,0,0-.29-.38c-.8-.88-.27-2.41.75-3a5.43,5.43,0,0,1,3.48-.39,1.54,1.54,0,0,1,.24-1.28,1,1,0,0,0,1.19-.49,1.12,1.12,0,0,1,.27-.43.66.66,0,0,1,.39-.11c.79-.08,1.61-.1,2.38-.24a2.91,2.91,0,0,1,.1-1.12,14.93,14.93,0,0,1,2.14.36,4.1,4.1,0,0,0-.61.11,7.66,7.66,0,0,0,0,1,5.41,5.41,0,0,1,1.47,1.79l-1.55.16a3.93,3.93,0,0,1,1.05,1.38,3,3,0,0,0-1.28.18,1,1,0,0,0-.61,1.05c0,.13.1.28,0,.4s-.21.12-.34.13l-3.08.09a2.19,2.19,0,0,1-1.81-.5,4.72,4.72,0,0,0-.44-.63,1,1,0,0,0-1.3.14,1.51,1.51,0,0,0-.24,1.38c.34,1.28,1.81,2.09,2,3.41,0,.23,0,.51.22.66a.67.67,0,0,0,.3.1,1.23,1.23,0,0,0,1.29-1.21,4.16,4.16,0,0,1,3,3.72c0,.88-.14,2,.56,2.49.87.66,2.13-.2,3.2,0,.15-.4-.17-.81-.43-1.16s-.47-.87-.15-1.17.82-.08,1.11.22.54.7.95.82a7.6,7.6,0,0,0-.53-4.56,2.36,2.36,0,0,1,1.76,1.57,8.12,8.12,0,0,0,1.11,2.2,3.85,3.85,0,0,1,.51.56,2.83,2.83,0,0,1,.28,1.26,12.25,12.25,0,0,0,1.1,3.56,1.39,1.39,0,0,0,.26.44,1.29,1.29,0,0,0,.55.23l1.5.37a2.64,2.64,0,0,0-.47-1.35h.5c-.13-1-.26-2.06-.4-3.09a1.5,1.5,0,0,0-.42-1,3.47,3.47,0,0,1,2.23,1.85A15.17,15.17,0,0,1,347.12,594.2Zm9.18-9.31c.06.21-.29.61-.38.82a3.76,3.76,0,0,1-.88,1.07c-.5.49-1,1-1.52,1.45a5.39,5.39,0,0,1-1.43,1.08,5,5,0,0,1-1.71.33,14.1,14.1,0,0,1-7.37-1c-.26-.13-.56-.39-.43-.66l1.23,0c.23,0,.53-.08.57-.3a2.26,2.26,0,0,1,0-.26c0-.12.17-.18.28-.23a3.33,3.33,0,0,0,1.48-1.3,1.06,1.06,0,0,0,.2-.56c0-.27-.18-.55,0-.77a1.55,1.55,0,0,1,.27-.24c.59-.51,0-1.63.48-2.21h.35a3.66,3.66,0,0,0,1.31,2.7.78.78,0,0,0,.13-.63c.29.07.53-.18.75-.38a4.15,4.15,0,0,1,3.23-.63.93.93,0,0,1,.37.1c.49.26.42,1.14.95,1.29a2.35,2.35,0,0,0,.59,0c.27,0,.56.2.54.46a.59.59,0,0,0,.15-.55C355.48,584.56,356.22,584.58,356.3,584.89Z" transform="translate(-257.35 -268.76)"/><path class="cls-1" d="M799.75,779.49c7.67-.19-4.14-.73,5-.33A11.71,11.71,0,0,1,799.75,779.49Z" transform="translate(-257.35 -268.76)"/><path class="cls-1" d="M805.83,752.49c-2.18-24.68,0-57.19-1.36-84.23-.1-3.16,1.19.83.9-6.33-1.69-26.2-.68-67.49.62-99.41l.34,1.94c.24-6.09-.87-13.51-.72-20,.23-.06.32,2.06.63.56-.68-1.62-.31-11.64-.82-14.37.27-2.55.8-2.29,1.1-5.59l-.77-3.69c-1.82-10.25.13-24.9-.82-38.88.18.67.32,2,.49.94-1.11-22.46-.9-50.55-1.3-75.66.27,1,.76,1.93,1.07.46-.81-1.24-1-9-1.17-15.72.83-3-.76-11.54-.3-19.44l.18.67c-.87-5.83.5-8.65-.54-13.39l.65-3.69c-1.17-2.57.61-8.44,0-13.27l-.24.16c-.28-4.55.3-6.91.11-11.13l.13-.4c-.3-9.87.35-15.61-.57-15.37.73-3.46.34,9.56,1.4,4.13-.24-15.37-.48-30.37-.72-45.42l-52.09.06c-3.72-.37-6.09-.48-6.93-.82-3.26.18-12.32.17-15.3.63,1.1,0-2.11-.46-3.84-.51-6-.34-6.51,1-13.06.6,2.61-.25,3.49-.54,2.62-.88-5.59.71-13,.6-19.65.83,1-.16,2.62-.25,2.37-.54-7.21.81-13.16-.17-19.49.35l2.37-.53c-10.18-.64-3,1.1-11.81.72,2.12-.17,1.37-.37,1.75-.59-8.21,1-21.5.65-29.7,1,.49-.07.36-.21.36-.21-8.93.11-18.25-.18-28.07.23-3.58-.23,1.17-1.28-8.29-1.09.35,1.06-16,.44-10.46,1.63-8.07-.17-20.84-.57-26.22-.21,3.63-.4-3.93-1.29,2.77-1.38l-5.07-.64c.76-.43,5.22.15,3.62-.4-3.38,0-13.17.46-16.17.29-6.23.65-12,1.86-22,2,4.74-.41-2.7-1.16.53-1.34l-14.07,2c-3.36.05-.73-.83-5.59-.56.26.28-1.85.45-3.34.68-1.25-.12-13.94.26-15.4-.78-1.48-.41,5.47-.22,1.75-.59l-12.67.39-.11-.14c-4.1-.16-12.07.44-7.62,1,2.85,0-1.07-.63,3.13-.33-2.87.61-10.08.78-16.27.79a5.43,5.43,0,0,0,2.71-.74c-8.33.82-17.16,1.07-26.46,1.42-.14.49,3.47-.9,4.84-.64-11.92-.69-24.62,1-34.54,0,1.63-.09.88.7.77.56-5.74-.06-5.48-.78-9.22-.51-.37-.42-4.71.13-8.56.26-2,.3-1-.2,2.35-.25-5.36.36-26.84,1-39.23.39.24.28-7.62,1-10.47,1l1.12-.65c-2.6-.39-9.56.06-10-.5-6.09.79,23.45-.68,15.21-.07-2.13-.54-11.47,1-9.7.16-5.73,0-11.28.75-16.75.14,1.6.11,4.65-.9,0-.86-8.14.12-2.32.32-8.92.53l-4.14.27c-.27.63-7.27-.08-4.25.62-1-.52-11.83.33-11-.73l1.13-.82c-3.52.06-5.76.87-8.53,1.24-.46-.08-1.39-.25-1.21-.38-.56,1.26-8.4-.11-12.58.87l-9-.28c-.05,1-.09,1.91-.14,2.78a25.48,25.48,0,0,1-.41,3.87,143.37,143.37,0,0,1,.57,17.29c-.12-1.29-.15-3.05-.43-3.41-.37,4.05,0,5.05.17,8.76-.19-.83-.74,8.1-1.19,12.61.38,5.63,1.06,3.7,1.48,4.26-1.25,5.15.81,15.89-.33,22.33-.17-1.95-.61-8.21-.93-3.53-1.25,5.15.93,10.37.32,18.67l1.05-2c-.65,3.69.6,12.21-.46,11.36.37,2.78-.35,9.78.67,8.86-.86,13.62.52,33.13-1.3,41.5.17,1.95,0,6.82.52,5.82.56-3.24-.41-4.53,0-5.73,0,1.75.31,2.13.45,2.31-.24,4.24-.31,7.57-1.15,3.57-.63,9.43,1.72,9.72,1.33,21.71-.42-.55-.58.36-.52,3.87l.72,6.66c-.16,7.75-.95,4.41-1.67,4.59.13,4.15.09,9.22.62,11.1l-.89,5c.65-3.66.43,3.41.61,5.36l-.18-2c-.3.77-.12,5.55,0,8,.45-.56.62-5.46.75-8.12.22,3,.33,4.53.61,8.21-.7-.93-.5,6.76-.57,10.05-.15,3.78.63,4.26.6,5.36-.36.1-.06,6.17-.57,3.22-.11-1.29.36-2.94,0-5.07-.27,2.49-.9,2.2-.44,7.37.34,3.89,1.38-1,.93,6.38a31.24,31.24,0,0,0-.7-3.8l-.36,6.92.63.29c-.16.93-.21.29-.3.72.67,2.06.21,10.56,1,12.13.06,3.49-.44,7.34-.51,10.68l-.06-.65a68.25,68.25,0,0,0,.3,12.91l-.13-.18a84.27,84.27,0,0,0,.42,10.26c-.48,5.62-2.4,1.89-1.6,8.11,0,5.7,1.16,8.94,1.57,6.64-.43,10.25.61,21.88-.38,31.38a11.16,11.16,0,0,1,.57,3.58c-.25,15,.75,31.77-.5,43.75-.26-4.37-.63-.3-1-.2.56,3.6-.59,4.32.38,5.62.57-.36.85,0,1.09-4.24.3,9,.3,22.62-.23,27.6.27-2.49.44-.56.61,1.4-.91-.65-1.05,6-.73,11l.56.71-.57,3.25c.18,1.93,1.17,2.13.63,7.1a2.61,2.61,0,0,0-.59,1.45c.45,5.19,1.22,12.49.75,18.11l-.81,4.6c.09,2.4.58,6.45.81,2.22-.49,9.59-.55,15.78-1.25,18.82.57,4.66,1.22,14.43,1.22,14.43a43.42,43.42,0,0,1,6-.29l10.5-.15h20.32l-.56.42c5.17.39,2.68-.73,6.29-.44-1.68.39,3.94.86-.12,1.35,7.39.44,9.53-.73,14.34-.91.73-.55-3.87.35-2.94-.35.83-.2,10.23.43,11.39-.4,1.85.32.41.93-.59,1.27l4.52-.4c5.53,1-12.6,1.73-6.8,2.92l4.17-.13c4,.87-11,1-.56,1.28,4.54-.41,8.42-1.61,4.38-2,9.44-.23,4.37-2,14.52-1.91,2.78.49-8.13.12-6.17.8,4.78.67,9.6-.37,13.85-.14-4.72-.31-.73-1.15,2.33-1.3,5.17.39-3.35.79,4,.87,1.21-.48,7.93-.84,2.12-1.17,2.64-1.08,7.62.3,11.6-.54,2.38.76-7.54,1.77.5,2.15-1.27-.74,9.92-1,5.67-2.09,3.16.21,3.48.79,1.19,1.24,4.5.45,10.92-1.34,12.4.12l1.54-.76,5.73.84c4,0,12.78-1,12.42.11,1.28-.11,10.33-.06,6.83-.85-5.63-.48-6.47.58-9.6-.48,4,.86,8.11-.11,11.37-.41l.53.44c1.94-.17,6.4-.07,7.61-.55-1.48.25-.72.55.83.66l2-.67c7.88-.33,1.86,1.18,9.52,1l-5.82.52c1.27-.11,3.88.51,7.55.3l5.32-1.81c4.32-.27,1.94.69,6.18.06l-5.56.74c-.84.2,3.75,1,9.52,1,3.69-.21,9.41-1.09,3.59-1.43,2.9,0,6.95.36,4.65.81,6.55-.21-.86-.66,4.8-1l13.86,1.58L486,775h3.93c-5.08.81,2.57.62-.29,1.48a66.5,66.5,0,0,0,8.51-.38c-7.83-1.38,8.79-1.89,6.52-3.14,10.74-.35,6.71,3.06,17.91,1.09-1.83-.33,3.45-1.29-3.31-.93,6.67.14,4.54-1.26,12.42-.74-5.85.52,6.26,1.28-2.18,2,.57-.42-4.7-.32-6-.2,2.75.48-.57,1.27,6.27,1.27,4.16-.13,9.89-.15,9.06-.8-.18-.72-6.37.07-3.7-.66,8.31-.25,9.7.85,13.15-.43-5.26.1-6.57-.64-6.48-1.13l6.11-.3-1.18.47c9.78.35,2.88-.86,12.38-.74l4.44.95c-2.25.81-13.8-.36-12.11,1,6.17.06,8.21-.62,14-.27l-4.35.26c2.22,0,4.42,1.8,13.21.77,4.54-.4,1.2-.47,1.31-1l19.24-.74c-1.31,1,11.27.1,4.23,1.09-3.25-.57-17.56-.52-21.07.41,3.6,1.14-7.78-.16-9.91,1,8,0,7.56,1.16,8.84,1.9a48.31,48.31,0,0,0,5.66-.38c.93-.7-1.95-.69-2.12-1.4a160.38,160.38,0,0,0,22.28-.88c2.95.34,2,1-1.48,1.1,10.54-.2,21.81-.11,31.81.1-6.47-1.13,11.17-.26,6.76-1.21-5.37-.25-10-1.06-7-1.57,3.36.07-.1.49,1.3.74,4.27-.63,6.64,1,10.83,0-9.63.37-1.88,1.39-3.65,2.28,6.95-.5-.29.63,6.57.63l23.12-1.08c9.66.85,24.46,0,33.09,0,4.52.45,1.46,1.45,6.36,1.63,5.75,0-4.26-1.09,4.25-.62l-.82.19c2.57-.23,15.6.69,18.12-.76l-2.62,1.09a28.37,28.37,0,0,0,4.37-.26c.06.35,1.91.67-.67.91,5.25.75,11-.12,16.74-.15l-3.68-.65c9.78-.5,16.32.13,25.78-.09l-.28.63,5.62-.38c-1.37.62,3.78,1,6.76.5l-14.63,1.55c-4.06-.38,4.44-.77,1.89-1.39-2.16-.54-10.92-.37-12.33.23a35.9,35.9,0,0,0,6.11-.29c1.11.88-4,.84-6.49,1.43,1.75,0,4.25.23,4.62,0a104.33,104.33,0,0,1-12.66.52c3.89-.34-2.12-.54-.65-.79-.46.77-5.94,1-13,.79-5.07-.89-13.33.58-21.55.33a78.25,78.25,0,0,1,12.59-1.73L717,777.82a41.94,41.94,0,0,1-11,1.83l-.36-.58c-6.11.3-6.11,1.15-13.88,1l-37.15-.35-.39-.58c-5.65,1.24-18.83.46-26.43,1-12.95-.55-28.12.56-34.76-.44-22.84.44-42.81.88-66.47.67l4-.84c-4.24.61-2.76-.48-6.91-.36,4.77.67-5.77.87-8.7,1.38-10.54-.65-24.07.06-33.41.65l-.36-.58c-9.44,1.09-20.71.14-32.47,0a30.13,30.13,0,0,0-7-.72c-6.38.94-9.72.87-19.08,1.46-6.83,0-17.92-.24-24.86-.6-25.71,1.31-52,.47-78.68,1.26l-1.93-.68c-8.58.49-17.82.66-27.13.71l-31.59-.06c-.09-10.46-.17-20.07-.24-29.09l1.16,2.13c.36-6.91-.3-15.77-1.13-14,.36-6.94-.56-17.31.39-21.71.22-7.09-.53-8.68-.69-14.57.44-14.2.34-19.47.12-32.85l-.07,3.31c.26,1.48.75,1.6.83-1.73-.33-5,.31-18.36-1.08-13.38.8-14.29-.65-33.33.43-47.23-.38,1.19-.45-2.32-.71-3.8,0-12.53.76-25.71.11-35.72.19-2,.65,3.18.69-1.93-.15-3-.5-.07-.71-3.78-.71-20.31.73-41.12.55-59.59-.74-32.83-.37-67.08-.49-98.53l.28.35c-1.06-10.53,1.09-24.71-.51-33.11.26-2.49.12-9.51.66-7.66-.75-8.39.71-23.49-.25-35.61a21.85,21.85,0,0,0,.16,3c.61-12.24-.23-23,.32-36,.12,1.31.21,3.69.49,4.08.53-5-1.18-11.83.17-14.57,0-2.86-.68-2-.64-.28.06-6.28.11-12.53.16-18.92l77.16-.8c21.15.81,1.29,2.26,18,1.26,1.36.26,1-.51,1.22-.23,6.45-.38,10.05,1.49,14.53.79-1.84-.82,3-.46,3.12-1,12.92.54,15.52,1.28,25.73.65l-.77.44c12-1.23,25.82-.57,35.91-2l193.52-1.21,183.69.25c0,5.93-.08,12.07-.12,18.23-1.15,15.1-1.11,16.23-.65,32.8-.19-.66-.23-1.7-.4-.6.93.84.08,11.68,1,13.27,0,23.88.06,45.77.09,70.27-.1-3.88-.87-5.82-.81-1.22l.6,4.82-.26.79c.14,3.14.6,6.58.9,3.33.81,61.57-1.07,122.14-.84,182.45-.39,14.32,0,34.7.16,50.26-1.25,46.12-2.26,87.69-1.38,134.54C808.81,778,806.39,771.83,805.83,752.49Z" transform="translate(-257.35 -268.76)"/><path class="cls-1" d="M790.5,779.58c-1.64-.47-7-.72-2.73-1.35C788.3,778.67,791.07,779.16,790.5,779.58Z" transform="translate(-257.35 -268.76)"/><path class="cls-1" d="M647,774.78a11.61,11.61,0,0,1-2.5-.27c1.77,0,3.43-.43,4.83-.19A5,5,0,0,0,647,774.78Z" transform="translate(-257.35 -268.76)"/><path class="cls-1" d="M610.33,774.5c.55-.42,8.4-.75,13-.8Z" transform="translate(-257.35 -268.76)"/><path class="cls-1" d="M576.15,772.78c-3-.35-2.14-.54,1.84-.53C578.28,772.47,577,772.58,576.15,772.78Z" transform="translate(-257.35 -268.76)"/><path class="cls-1" d="M573.72,773.73a28.5,28.5,0,0,1-5.63-.47C568.2,773.61,574.67,773,573.72,773.73Z" transform="translate(-257.35 -268.76)"/><path class="cls-1" d="M499.51,772.52c-1.78,0-5.65.38-7.31-.08C494.06,772.76,500.88,771.91,499.51,772.52Z" transform="translate(-257.35 -268.76)"/><path class="cls-1" d="M465,773.15a19.68,19.68,0,0,0-2.87,0c-2-.19.12-.49,1.85-.53Z" transform="translate(-257.35 -268.76)"/><polygon class="cls-1" points="8.22 84.79 8.43 88.51 8.02 87.96 8.22 84.79"/><path class="cls-1" d="M458.62,277.89c3.73-.26,2.6.39,3.21.45C458.47,278.38,463.07,277.83,458.62,277.89Z" transform="translate(-257.35 -268.76)"/><polygon class="cls-1" points="349.61 7.05 348.48 7.07 348.86 6.22 349.61 7.05"/></svg>