<svg id="Layer_1" data-name="Layer 1" xmlns="http://www.w3.org/2000/svg" viewBox="0 0 504.9 610.25"><defs><style>.cls-1{fill:#fff;}</style></defs><path class="cls-1" d="M557.92,458.86l-2.6-8.66c43.89-13,70-57,58.18-98.12L595.68,290c-5.78-20.11-19.61-36.62-38.94-46.51a85,85,0,0,0-44.3-9l-.34-9.06a94.81,94.81,0,0,1,49.45,10c21.57,11,37,29.44,43.43,51.87l17.82,62.05C636,395.26,606.86,444.36,557.92,458.86Z" transform="translate(-364.1 -224.39)"/><path class="cls-1" d="M666.47,817.21l-.21.06-1.31-4.5-1.61-4c40.62-15.54,62.78-56.77,51.54-95.9l-17.82-62c-11.7-40.73-55.3-64-99.24-53L595.66,589c49-12.26,97.66,13.71,110.71,59.13l17.82,62c12.54,43.64-12.19,89.63-57.51,107Z" transform="translate(-364.1 -224.39)"/><path class="cls-1" d="M637.68,828.94a145.5,145.5,0,0,1-78,.72c-36.87-10-66.94-34.6-82.5-67.4A1248.13,1248.13,0,0,1,364.9,371.51c-4.21-36,8.25-72.77,34.19-100.79,26.19-28.28,63.66-45.14,102.78-46.26l1.7-.06c17.94-.5,32.45,12.33,33,29.24C543,437.72,593,611.94,685.36,771.44c8.46,14.65,3,33.21-12.5,42.25l-1.47.86A146.87,146.87,0,0,1,637.68,828.94ZM468.14,238.77a135.12,135.12,0,0,0-61.89,37.79c-24.11,26-35.69,60.16-31.77,93.64A1239.79,1239.79,0,0,0,486,758.31c14.45,30.46,42.39,53.28,76.65,62.61a136.19,136.19,0,0,0,103.91-14L668,806c11-6.42,14.89-19.6,8.86-30C583.84,615.29,533.41,439.74,527,254.25c-.41-12-10.71-21.12-23.44-20.76l-1.7,0A137,137,0,0,0,468.14,238.77Z" transform="translate(-364.1 -224.39)"/><path class="cls-1" d="M842.75,647.79a164.73,164.73,0,0,1-5.41,81.4,10.19,10.19,0,0,0,5.84,12.63l.67.28c6.21,2.65,13.74-.55,15.79-6.82a185.41,185.41,0,0,0,6.21-92.08C857.42,598.14,833,560,799,532.7a12.25,12.25,0,0,0-16,1h0a10.63,10.63,0,0,0,.59,16.17C813.69,574.1,835.28,607.89,842.75,647.79Z" transform="translate(-364.1 -224.39)"/><path class="cls-1" d="M752.85,563h0c-4.84,4.69-4.58,12.14.59,16.16,24.16,18.72,41.57,45.36,47.49,77a126.5,126.5,0,0,1-2.45,57,10.2,10.2,0,0,0,6,12.19l.67.28a11.91,11.91,0,0,0,16-7.49A147.33,147.33,0,0,0,824,651.51c-6.9-36.84-27.2-67.88-55.37-89.69A12.3,12.3,0,0,0,752.85,563Z" transform="translate(-364.1 -224.39)"/><path class="cls-1" d="M725.8,589.19l0,0a10.62,10.62,0,0,0,1,16.45c18.72,13.79,32.27,33.86,36.77,57.86a92.4,92.4,0,0,1-.24,35.21,10.26,10.26,0,0,0,6.13,11.62l.7.3c6.65,2.83,14.69-1.06,16.11-7.94a113.23,113.23,0,0,0,.41-43.78c-5.51-29.41-22.09-54-45-70.91A12.4,12.4,0,0,0,725.8,589.19Z" transform="translate(-364.1 -224.39)"/></svg>