<svg id="Layer_1" data-name="Layer 1" xmlns="http://www.w3.org/2000/svg" viewBox="0 0 558.78 434.16"><defs><style>.cls-1{fill:#fff;}</style></defs><path class="cls-1" d="M629.41,716.37C511.19,780.55,437,749.11,433.89,747.71l-1.5-.65L354.15,603.47l199.62-7.86L682.62,421.89,762.25,568l-.26,1.6C761.49,573,747.64,652.21,629.41,716.37Zm-190.11,23c10.83,3.93,80.69,25.3,185.46-31.57s124.72-127,127.3-138.18L681.4,440,558.88,605.19l-2.34.08-186.32,7.37ZM551.24,590.75l-2.35.08L232.94,603.26l183.49-259.9,2.31-.12,331.51-20.76-20.34,27.36,25.57,46.92,5.16-2.8,19.42,35.64,4.85-2.65,6.81,32.62-24.59,13.35-23.75-23.43,4.82-2.6-19.41-35.64,5.2-2.82-20.11-36.89Zm217.6-129.81,11.86-6.44L778,441.76l-18.4,10ZM252.3,592.74l293.82-11.57,169-227.74,32.09,58.89L742,415.14l14.77,27.11,14.75-8-14.77-27.1-5.16,2.79L718.39,349l11.49-15.5L421.7,352.85Z" transform="translate(-232.94 -322.48)"/></svg>