<svg id="Layer_1" data-name="Layer 1" xmlns="http://www.w3.org/2000/svg" viewBox="0 0 658.78 699.77"><defs><style>.cls-1{fill:#93d2c0;}</style></defs><path class="cls-1" d="M845.2,881.44c9.82-.2-5.29-.75,6.42-.33A18.83,18.83,0,0,1,845.2,881.44Z" transform="translate(-199.33 -184.23)"/><path class="cls-1" d="M852.72,847.31c-2.25-31.55,0-73.11-1.41-107.68-.1-4,1.23,1,.93-8.09-1.74-33.5-.7-86.29.64-127.09l.35,2.47c.25-7.77-.9-17.26-.74-25.5.23-.07.33,2.64.64.73-.69-2.07-.32-14.89-.83-18.38.27-3.26.82-2.93,1.12-7.14l-.79-4.72c-1.88-13.1.13-31.83-.84-49.71.18.86.33,2.62.51,1.21-1.15-28.71-.93-64.63-1.35-96.73.28,1.28.79,2.47,1.1.58-.83-1.58-1-11.5-1.21-20.09.86-3.88-.78-14.75-.31-24.85l.19.86c-.89-7.46.52-11.07-.55-17.12l.67-4.72c-1.21-3.28.62-10.79,0-17l-.25.2c-.29-5.81.31-8.83.11-14.22l.14-.51c-.32-12.63.36-20-.58-19.66.75-4.42.34,12.23,1.43,5.29-.8-34.26-.81-70.75-.8-104.33H830.48c-4.76-.37-7.79-.49-8.86-.84-4.17.18-15.75.17-19.56.65,1.4,0-2.7-.48-4.91-.53-7.63-.35-8.32,1-16.69.61,3.33-.25,4.45-.55,3.34-.9-7.14.73-16.68.62-25.12.85,1.32-.16,3.36-.25,3-.54-9.23.83-16.83-.18-24.92.35l3-.55c-13-.66-3.84,1.14-15.1.75,2.7-.17,1.75-.38,2.24-.61-10.5,1-27.49.67-38,1,.62-.08.46-.22.46-.22-11.42.12-23.34-.19-35.89.24-4.57-.24,1.49-1.32-10.59-1.12.44,1.09-20.5.44-13.38,1.68-10.32-.18-26.64-.59-33.51-.22,4.63-.41-5-1.33,3.54-1.42l-6.48-.66c1-.45,6.67.15,4.61-.41-4.3,0-16.83.47-20.66.3-8,.66-15.28,1.91-28.17,2,6.06-.43-3.45-1.2.68-1.39l-18,2.09c-4.29,0-.93-.87-7.14-.58.33.29-2.37.47-4.26.7-1.61-.12-17.83.27-19.7-.8-1.88-.42,7-.23,2.24-.61l-16.19.4-.15-.15c-5.24-.16-15.42.46-9.73,1.05,3.64,0-1.38-.64,4-.33-3.68.62-12.89.8-20.81.81a8.18,8.18,0,0,0,3.46-.76c-10.65.84-21.93,1.1-33.82,1.46-.18.51,4.44-.93,6.19-.66-15.25-.71-31.47,1-44.15,0,2.07-.09,1.12.72,1,.58-7.35-.07-7-.8-11.8-.53-.47-.44-6,.14-10.93.27-2.54.31-1.28-.21,3-.26-6.86.37-34.31,1-50.16.4.3.29-9.75,1.06-13.38,1l1.42-.67c-3.32-.4-12.21.06-12.82-.51-7.79.81,30-.7,19.44-.07-2.71-.56-14.66,1.07-12.39.16-7.32,0-14.42.78-21.41.15,2,.11,5.94-.93,0-.88-10.4.12-3,.32-11.39.54l-5.3.28c-.35.65-9.3-.09-5.43.64-1.28-.54-15.13.33-14.06-.76l1.44-.85c-4.49.07-7.36.9-10.9,1.28-.58-.08-1.77-.25-1.54-.39-.72,1.31-10.74-.11-16.08.9L208,193.81c-.05,1.52-.11,2.95-.15,4.19a40,40,0,0,1-.42,5.13c.4,7.24.87,13.84.59,22.1-.13-1.65-.16-3.9-.45-4.36-.38,5.18,0,6.46.18,11.19-.2-1.06-.77,10.37-1.23,16.13.39,7.19,1.09,4.73,1.53,5.45-1.3,6.58.83,20.3-.34,28.54-.18-2.49-.64-10.49-1-4.51-1.29,6.58.95,13.26.33,23.86l1.07-2.6c-.66,4.72.62,15.61-.47,14.52.39,3.55-.35,12.5.69,11.32-.88,17.43.54,42.36-1.34,53.06.18,2.49,0,8.73.54,7.45.58-4.15-.42-5.79,0-7.33,0,2.23.32,2.72.46,3-.24,5.41-.32,9.67-1.18,4.56-.65,12,1.77,12.42,1.36,27.74-.43-.69-.59.47-.52,5l.74,8.51c-.17,9.91-1,5.63-1.72,5.87.13,5.3.09,11.79.64,14.18l-.92,6.44c.66-4.69.44,4.35.62,6.85l-.18-2.5c-.31,1-.12,7.1,0,10.2.46-.72.64-7,.77-10.39.19,3.19.39,6.45.63,10.5-.72-1.18-.51,8.64-.59,12.85-.15,4.83.65,5.44.62,6.85-.37.13-.06,7.89-.58,4.12-.12-1.65.36-3.76,0-6.49-.28,3.19-.92,2.82-.45,9.42.35,5,1.42-1.28,1,8.17-.18-2.49-.46-2.94-.72-4.86l-.37,8.84.65.37c-.17,1.2-.22.37-.31.93.69,2.62.21,13.49,1,15.49.06,4.47-.46,9.4-.53,13.66l-.06-.82a108.67,108.67,0,0,0,.31,16.5l-.14-.24c-.05,2.84,0,9.57.43,13.12-.49,7.19-2.46,2.42-1.64,10.36,0,7.3,1.2,11.44,1.62,8.5-.45,13.1.62,28-.39,40.11a18.36,18.36,0,0,1,.58,4.58c-.26,19.24.78,40.62-.51,55.93-.27-5.58-.65-.38-1-.26.59,4.6-.61,5.53.4,7.19.59-.46.88,0,1.12-5.42.32,11.47.32,28.92-.24,35.29.28-3.19.46-.73.63,1.79-.94-.84-1.08,7.63-.75,14l.58.91-.59,4.16c.18,2.46,1.2,2.71.65,9.07a3.68,3.68,0,0,0-.61,1.86c.46,6.63,1.26,16,.78,23.15l-.84,5.88c.09,3.07.59,8.24.84,2.83-.51,12.26-.57,20.17-1.3,24.06.81,9.69,1.27,21.39,1.51,33.57.08,10.65.16,21.56.23,31.65l1.47,0-.23.43c5.44.4,3.11-.75,7.46-.45-2.14.41,5,.89-.16,1.39,9.46.45,12.19-.74,18.34-.94.93-.56-4.94.36-3.75-.35,1-.2,13.08.44,14.55-.42,2.37.34.53,1-.75,1.31l5.78-.41c7.06,1-16.1,1.78-8.69,3l5.33-.14c5.08.9-14.09,1-.72,1.32,5.8-.42,10.76-1.66,5.59-2,12.07-.23,5.6-2,18.58-2,3.55.5-10.4.12-7.9.82,6.12.69,12.28-.38,17.71-.14-6-.32-.93-1.19,3-1.34,6.61.4-4.29.81,5.06.89,1.55-.49,10.14-.86,2.71-1.2,3.38-1.12,9.74.31,14.83-.56,3.05.79-9.64,1.82.64,2.21-1.63-.76,12.68-1,7.25-2.15,4,.22,4.45.81,1.52,1.28,5.76.46,14-1.38,15.85.12l2-.78,7.32.86c5.08,0,16.34-1,15.87.12,1.63-.12,13.21-.06,8.74-.87-7.2-.5-8.27.59-12.28-.51,5.08.9,10.37-.11,14.54-.41l.68.45c2.47-.17,8.18-.07,9.72-.56-1.89.26-.91.56,1.07.67l2.59-.69c10.07-.34,2.37,1.21,12.17,1l-7.44.54c1.63-.12,5,.53,9.65.31l6.81-1.87c5.52-.27,2.47.71,7.9.07l-7.11.75c-1.08.21,4.8,1,12.17,1,4.71-.21,12-1.12,4.58-1.46,3.71,0,8.89.37,5.95.83,8.38-.22-1.1-.68,6.13-1.07l17.72,1.62-7.54,1h5c-6.51.84,3.28.64-.37,1.53a105.79,105.79,0,0,0,10.88-.39c-10-1.42,11.23-1.94,8.32-3.24,13.73-.35,8.58,3.15,22.91,1.12-2.35-.34,4.41-1.32-4.24-.95,8.53.15,5.8-1.3,15.87-.76-7.46.53,8,1.31-2.77,2.08.73-.43-6-.32-7.67-.2,3.52.5-.72,1.3,8,1.3,5.33-.12,12.64-.14,11.59-.82-.23-.74-8.16.08-4.74-.67,10.63-.26,12.4.87,16.81-.44-6.72.1-8.4-.67-8.28-1.18l7.81-.31-1.51.5c12.51.35,3.69-.9,15.83-.76l5.68,1c-2.89.84-17.64-.37-15.49,1,7.88.06,10.5-.64,17.94-.28l-5.55.27c2.82.05,5.64,1.86,16.88.8,5.8-.42,1.53-.49,1.68-1l24.59-.76c-1.68,1,14.4.1,5.4,1.12-4.14-.59-22.45-.53-26.93.42,4.6,1.19-9.94-.16-12.67,1,10.16,0,9.67,1.2,11.3,2,2.82,0,5.56-.27,7.23-.39,1.19-.72-2.49-.71-2.7-1.45a250.73,250.73,0,0,0,28.47-.9c3.79.35,2.59,1.07-1.89,1.14,13.48-.21,27.88-.11,40.68.1-8.27-1.17,14.27-.27,8.63-1.25-6.86-.26-12.76-1.09-9-1.62,4.28.08-.14.51,1.65.76,5.46-.64,8.49,1,13.84,0-12.3.38-2.39,1.43-4.66,2.35,8.88-.52-.37.65,8.4.65,8.86-.51,19.72-.91,29.55-1.11,12.35.87,31.28,0,42.31,0,5.77.46,1.86,1.5,8.13,1.68,7.34,0-5.45-1.12,5.43-.64l-1,.2c3.29-.24,20,.71,23.17-.78L755.3,879a44,44,0,0,0,5.59-.27c.08.36,2.45.7-.86.93,6.72.78,14.11-.12,21.4-.15l-4.7-.66c12.51-.53,20.87.13,32.95-.1l-.35.65,7.18-.39c-1.75.63,4.85,1,8.64.51l-18.69,1.6c-5.19-.39,5.67-.79,2.41-1.43-2.76-.56-14-.39-15.76.24a60.05,60.05,0,0,0,7.81-.3c1.42.9-5.08.87-8.3,1.47,2.24,0,5.43.24,5.91,0-4.4.45-8.85.51-16.19.54,5-.36-2.7-.56-.82-.82-.59.79-7.59,1-16.66.82-6.48-.93-17,.59-27.55.33a123.72,123.72,0,0,1,16.1-1.78l-14-.38a65.46,65.46,0,0,1-14.08,1.89l-.46-.6c-7.81.31-7.81,1.19-17.74,1l-47.5-.37-.49-.59c-7.22,1.27-24.08.47-33.8,1-16.55-.58-35.94.56-44.43-.46-29.2.46-54.73.9-85,.69l5.09-.87c-5.42.64-3.52-.5-8.84-.37,6.11.69-7.36.9-11.12,1.43-13.47-.68-30.76.06-42.7.66l-.46-.59c-12.07,1.12-26.48.14-41.52-.05a47.59,47.59,0,0,0-8.92-.73c-8.16,1-12.43.89-24.39,1.49-8.73,0-22.91-.24-31.79-.61-32.86,1.35-66.43.49-100.58,1.3l-2.46-.7-11.64.41-16.16.23c0-15.08,0-30.55,0-45.31.05-13.43.07-26.16-.23-37l1.2,2.73c.37-8.84-.31-20.16-1.16-17.91.37-8.87-.58-22.13.4-27.76.22-9.07-.55-11.1-.71-18.63.45-18.14.35-24.89.13-42l-.08,4.24c.26,1.88.77,2,.85-2.22-.33-6.37.32-23.46-1.11-17.11.83-18.27-.67-42.6.44-60.37-.39,1.51-.46-3-.73-4.86,0-16,.78-32.87.12-45.66.2-2.56.66,4.05.71-2.47-.15-3.86-.51-.09-.73-4.84-.73-26,.75-52.57.56-76.18-.76-42-.37-85.75-.5-126l.29.46c-1.1-13.47,1.12-31.59-.53-42.34.27-3.18.13-12.16.68-9.79-.77-10.73.73-30-.25-45.53a35.68,35.68,0,0,0,.15,3.89c.64-15.65-.23-29.47.34-46,.13,1.68.22,4.72.5,5.21.55-6.37-1.21-15.12.18-18.63,0-3.65-.7-2.6-.66-.35,0-7.64.11-15.34.16-23.2l97.66-.82c27,.83,1.65,2.33,23,1.3,1.74.26,1.26-.53,1.56-.25,8.25-.38,12.84,1.55,18.58.82-2.37-.85,3.81-.47,4-1,16.52.55,19.85,1.32,32.89.68l-1,.44c15.29-1.26,33-.59,45.92-2l247.39-1.24,187.35,0c-.12,22.34-.23,45.17-.35,68.26-1.18,19.3-1.15,20.75-.67,41.94-.19-.85-.23-2.19-.41-.77,1,1.07.09,14.93,1,16.95,0,30.48.06,58.52.09,89.84-.1-4.95-.89-7.44-.83-1.55l.62,6.16-.27,1c.14,4,.61,8.42.92,4.26.84,78.71-1.1,156.15-.86,233.24-.4,18.31,0,44.37.16,64.26-1.28,59-2.32,112.1-1.42,172C855.78,879.85,853.29,872,852.72,847.31Z" transform="translate(-199.33 -184.23)"/><path class="cls-1" d="M833.39,881.53c-2.11-.48-9-.74-3.5-1.38C830.57,880.6,834.11,881.11,833.39,881.53Z" transform="translate(-199.33 -184.23)"/><path class="cls-1" d="M650,876.59a18,18,0,0,1-3.19-.28c2.26,0,4.38-.44,6.18-.19A7.8,7.8,0,0,0,650,876.59Z" transform="translate(-199.33 -184.23)"/><path class="cls-1" d="M603.05,876.3c.71-.43,10.74-.77,16.67-.82Z" transform="translate(-199.33 -184.23)"/><path class="cls-1" d="M559.35,874.53c-3.78-.36-2.73-.56,2.36-.55C562.08,874.21,560.4,874.33,559.35,874.53Z" transform="translate(-199.33 -184.23)"/><path class="cls-1" d="M556.25,875.51A44.64,44.64,0,0,1,549,875C549.19,875.39,557.46,874.79,556.25,875.51Z" transform="translate(-199.33 -184.23)"/><path class="cls-1" d="M461.38,874.26c-2.28,0-7.22.39-9.35-.08C454.42,874.51,463.13,873.63,461.38,874.26Z" transform="translate(-199.33 -184.23)"/><path class="cls-1" d="M417.29,874.91a30,30,0,0,0-3.67,0c-2.61-.19.15-.51,2.36-.55Z" transform="translate(-199.33 -184.23)"/><polygon class="cls-1" points="8.47 106.9 8.68 111.66 8.26 110.95 8.47 106.9"/><path class="cls-1" d="M455.37,193.64c4.76-.27,3.32.4,4.11.46C455.18,194.14,461.06,193.57,455.37,193.64Z" transform="translate(-199.33 -184.23)"/><polygon class="cls-1" points="445.68 7.27 444.23 7.28 444.72 6.4 445.68 7.27"/></svg>