<svg id="Layer_1" data-name="Layer 1" xmlns="http://www.w3.org/2000/svg" viewBox="0 0 609.33 575.19"><defs><style>.cls-1{fill:#fff;}</style></defs><path class="cls-1" d="M660.91,832,257.16,649.79A19.94,19.94,0,0,1,247,623.52L346.81,410a4,4,0,0,1,7.31,3.4L254.3,626.89a11.85,11.85,0,0,0,6.19,15.56L664.24,824.71A12,12,0,0,0,680,819.14L780.13,604.59a3.91,3.91,0,0,1,5.36-2,4,4,0,0,1,2,5.35L687.33,822.54A20,20,0,0,1,660.91,832Z" transform="translate(-245.23 -258.66)"/><path class="cls-1" d="M511.85,530.36l-.2-.1c-85.45-44.58-140.56-95.4-160.28-115.19-6.66-6.67-8.7-16-5.21-23.65l53.57-118.21c3.44-7.59,13.22-10.61,21.82-6.73L844,457.18c8.59,3.88,12.78,13.21,9.34,20.8L800,595.8c-3.57,7.88-12.06,12.47-21.62,11.69a677.63,677.63,0,0,1-182-40,4,4,0,1,1,2.8-7.55A669.66,669.66,0,0,0,779,599.46c6.12.5,11.46-2.24,13.61-7L846,474.67c1.6-3.55-.78-8.1-5.31-10.14L418.22,273.81c-4.53-2-9.53-.83-11.14,2.72L353.51,394.74c-2.09,4.62-.69,10.37,3.58,14.65,19.46,19.52,73.85,69.67,158.29,113.73a4,4,0,0,1-3.53,7.24Z" transform="translate(-245.23 -258.66)"/><path class="cls-1" d="M569.43,599.71,504.74,570.5a13.57,13.57,0,0,1-6.79-18l19.89-43.87a13.63,13.63,0,0,1,18-6.78l64.7,29.21a13.56,13.56,0,0,1,6.78,17.95l-19.88,43.88A13.63,13.63,0,0,1,569.43,599.71ZM532.5,509.24a5.53,5.53,0,0,0-7.3,2.75l-19.89,43.88a5.52,5.52,0,0,0,2.75,7.3l64.7,29.2a5.53,5.53,0,0,0,7.31-2.75L600,545.75a5.53,5.53,0,0,0-2.76-7.3Z" transform="translate(-245.23 -258.66)"/><path class="cls-1" d="M556,572.68l-22-9.92a12.44,12.44,0,0,1-6.22-16.45L532.45,536a12.48,12.48,0,0,1,16.48-6.2l22,9.92a12.44,12.44,0,0,1,6.22,16.45l-4.69,10.35A12.48,12.48,0,0,1,556,572.68ZM545.6,537.1a4.39,4.39,0,0,0-5.8,2.18l-4.68,10.35a4.37,4.37,0,0,0,2.18,5.79l22,9.93a4.4,4.4,0,0,0,5.8-2.19l4.69-10.35a4.39,4.39,0,0,0-2.2-5.79Z" transform="translate(-245.23 -258.66)"/><path class="cls-1" d="M741.61,417.15a4,4,0,0,1-2-5.32l17.63-38.91a20.05,20.05,0,0,0-10-26.54L574.66,268.5a20.12,20.12,0,0,0-26.58,10l-17.64,38.9a4,4,0,0,1-7.35-3.32l17.63-38.9a28.22,28.22,0,0,1,37.27-14L750.53,339a28.13,28.13,0,0,1,14.05,37.2L747,415.14A4,4,0,0,1,741.61,417.15Z" transform="translate(-245.23 -258.66)"/><path class="cls-1" d="M718.79,404.86a4,4,0,0,1-2-5.33l10.43-23c2.29-5.05-2-12.11-9.29-15.42l-135-60.93c-7.32-3.31-15.45-1.84-17.74,3.21l-10.43,23a4,4,0,0,1-7.36-3.32l10.44-23c4.16-9.18,16.91-12.43,28.42-7.23l135,60.93c11.51,5.19,17.49,16.89,13.33,26.08l-10.44,23A4,4,0,0,1,718.79,404.86Z" transform="translate(-245.23 -258.66)"/></svg>