<svg id="Layer_1" data-name="Layer 1" xmlns="http://www.w3.org/2000/svg" viewBox="0 0 850.35 349.07"><defs><style>.cls-1{fill:#93d2c0;}</style></defs><path class="cls-1" d="M794.82,653.33c8.08-.23-4.36-.9,5.28-.4A10.65,10.65,0,0,1,794.82,653.33Z" transform="translate(-124.95 -307.93)"/><path class="cls-1" d="M827,650.41A276.22,276.22,0,0,0,868.42,637a142.58,142.58,0,0,0,38.24-24c2.43-2.27.31,1.74,5.7-3.61a221.18,221.18,0,0,0,31.26-39c9.79-15.63,17.93-33.4,22.12-49.87l-.11,2.09c2.28-6.16,1.39-14.34,2.83-21,.28,0,.06,2.21.68.68-.45-1.78.32-12.38-.09-15.28.4-2.69,1.28-2.41,1.42-5.92l-1.15-3.9c-2.46-10.64-2.07-26.34-7.39-40.32.39.63.92,2,.84.8-7.23-22.61-21.5-49.12-40.13-67.93,1,.54,2.07.85,1.3-.55-1.51-.41-7.29-6.12-12.82-10.52-1.52-3.15-9.86-7-16.17-12.33l.7.23c-5.54-2.67-7.35-5.34-12.19-6.89L880.55,337c-3,0-7.61-4.54-12.48-6.11l0,.35c-4.36-1.89-6.58-3-10.77-4.42l-.34-.3c-9.73-3.5-15.6-5-15.57-4-3.29-1.78,9.82,2.09,4.66-.59-16.59-4.6-34-5.47-51.37-5.59l-52.11,0c-3.92-.45-6.41-.59-7.29-1-3.44.23-13,.21-16.1.79,1.15,0-2.23-.58-4.05-.64-6.28-.42-6.85,1.25-13.74.74,2.74-.3,3.67-.67,2.75-1.09-5.88.89-13.73.75-20.68,1,1.08-.19,2.76-.3,2.5-.66-7.6,1-13.86-.21-20.52.43l2.5-.66c-10.72-.79-3.16,1.37-12.43.9,2.22-.21,1.44-.46,1.84-.73-8.64,1.19-22.63.8-31.26,1.2.52-.09.38-.27.38-.27-9.4.15-19.21-.22-29.55.3-3.76-.29,1.23-1.6-8.72-1.36.37,1.31-16.88.54-11,2-8.5-.22-21.94-.71-27.6-.27,3.82-.5-4.14-1.6,2.92-1.71l-5.33-.8c.79-.53,5.49.18,3.79-.49-3.54.05-13.85.57-17,.36-6.55.81-12.58,2.3-23.19,2.47,5-.51-2.84-1.44.56-1.67l-14.81,2.52c-3.53.06-.77-1-5.88-.7.27.35-2,.56-3.51.84-1.32-.14-14.68.33-16.21-1-1.56-.51,5.75-.27,1.84-.73l-13.34.47-.12-.17c-4.31-.19-12.69.55-8,1.27,3,0-1.14-.78,3.3-.41-3,.76-10.62,1-17.14,1a4.93,4.93,0,0,0,2.85-.92c-8.76,1-18.05,1.34-27.84,1.76-.15.62,3.65-1.12,5.09-.79-12.55-.85-25.91,1.21-36.35,0,1.71-.11.93.87.81.7-6-.08-5.77-1-9.71-.64-.39-.52-4.95.17-9,.33-2.09.38-1.06-.26,2.48-.31-5.65.44-28.26,1.24-41.3.48.25.35-8,1.27-11,1.23l1.17-.81c-2.73-.48-10,.08-10.55-.62-6.41,1,24.68-.84,16-.08-2.24-.67-12.07,1.29-10.21.19-6,0-11.87.94-17.62.18,1.67.13,4.89-1.12,0-1.06-8.56.14-2.44.38-9.38.66l-4.36.33c-.29.78-7.66-.11-4.47.77-1.06-.65-12.46.4-11.58-.91l1.19-1c-3.7.07-6.06,1.08-9,1.54-.49-.1-1.46-.31-1.28-.47-.59,1.57-8.84-.13-13.24,1.08-7.77-.54-19.74,0-23.4-1a130.37,130.37,0,0,1-18.24.71c1.36-.15,3.22-.19,3.61-.53-4.28-.47-5.33,0-9.24.2.87-.23-8.55-.92-13.3-1.48-5.94.47-3.91,1.32-4.5,1.84-5.43-1.55-16.75,1-23.54-.41,2.05-.21,8.65-.76,3.72-1.15-2.72-.78-5.45-.49-8.6-.1l-5.09.54-2.78.1a17.35,17.35,0,0,1-1.93-.14,8.52,8.52,0,0,1,1.52,1.29,6.88,6.88,0,0,0-3.05-.15c.15,1.65.35,2.84-.42,2.42.24.37.13,2.83.12,5.06s.09,3.69.72,3.2c-1.07,14.35.64,34.87-1.62,43.69.21,2.05,0,7.18.65,6.13.7-3.42-.51-4.77,0-6,0,1.84.39,2.25.56,2.44-.29,4.46-.38,8-1.43,3.75-.78,9.92,2.15,10.23,1.65,22.85-.52-.58-.72.38-.63,4.07l.89,7c-.21,8.16-1.18,4.64-2.07,4.84.15,4.36.11,9.7.77,11.67l-1.11,5.3c.8-3.86.53,3.59.75,5.64l-.22-2.05c-.37.8-.14,5.84,0,8.39.55-.59.77-5.74.93-8.56.38,2.24.29,5.7.75,8.65-.86-1-.61,7.11-.7,10.58-.19,4,.77,4.48.74,5.64-.45.1-.07,6.5-.7,3.39-.15-1.35.43-3.09,0-5.34-.33,2.63-1.12,2.32-.55,7.76.43,4.1,1.71-1.05,1.16,6.72a28.12,28.12,0,0,0-.87-4l-.45,7.28.79.31c-.2,1-.27.3-.37.76.83,2.16.25,11.11,1.19,12.76.08,3.67-.55,7.73-.64,11.24l-.07-.68a60.58,60.58,0,0,0,.38,13.59l-.18-.2a79.34,79.34,0,0,0,.53,10.8c-.6,5.92-3,2-2,8.54,0,6,1.45,9.41,1.95,7-.53,10.79.76,23-.47,33,.32,1.55.52.57.71,3.76-.31,15.84.94,33.44-.62,46-.33-4.59-.78-.31-1.24-.21.71,3.79-.73,4.55.48,5.92.72-.38,1.06,0,1.35-4.46.08,3.5.17,7.61.26,11.69a51.85,51.85,0,0,1-.15,6.55,11.23,11.23,0,0,1,2,.39c-1-.33,0-.54.63-.76-1.13,1.14,6.18,1.31,11.36.91l.75-.69,3.43.71c2-.22,2.24-1.45,7.48-.79a2.58,2.58,0,0,0,1.54.74c5.47-.57,13.16-1.52,19.09-.94l4.86,1c2.53-.11,6.79-.72,2.34-1,10.11.61,16.64.69,19.84,1.56,17.43-2.13,42.72-2.22,63-2.06l-.59.51c5.44.49,2.82-.9,6.62-.54-1.76.49,4.15,1.07-.13,1.68,7.78.54,10-.9,15.1-1.14.77-.68-4.07.44-3.09-.42.86-.25,10.77.53,12-.5,1.95.4.43,1.16-.62,1.58l4.76-.5c5.81,1.2-13.26,2.15-7.16,3.63l4.39-.16c4.19,1.07-11.6,1.21-.59,1.58,4.78-.51,8.86-2,4.61-2.45,9.93-.29,4.6-2.46,15.29-2.37,2.92.6-8.56.14-6.5,1,5,.83,10.1-.46,14.58-.17-5-.39-.77-1.43,2.45-1.62,5.44.49-3.53,1,4.17,1.08,1.27-.59,8.35-1,2.23-1.45,2.78-1.35,8,.37,12.2-.67,2.51.94-7.93,2.19.53,2.66-1.34-.91,10.45-1.24,6-2.6,3.32.27,3.67,1,1.25,1.55,4.74.56,11.5-1.67,13.05.14l1.63-.93,6,1c4.18,0,13.45-1.26,13.07.15,1.34-.15,10.87-.08,7.19-1.06-5.93-.59-6.81.72-10.11-.6,4.18,1.07,8.54-.14,12-.5l.56.54c2-.21,6.73-.09,8-.68-1.56.31-.76.68.87.81l2.14-.83c8.29-.41,2,1.46,10,1.22l-6.12.65c1.34-.14,4.09.63,7.95.37,1.5-.75,4.31-1.66,5.6-2.25,4.55-.33,2,.85,6.51.08l-5.86.91c-.88.25,3.95,1.25,10,1.23,3.88-.26,9.9-1.36,3.78-1.77,3,0,7.31.45,4.89,1,6.9-.26-.9-.81,5.05-1.28,2.44.5,10,1.22,14.59,1.95l-6.21,1.27h4.13c-5.35,1,2.71.78-.3,1.85a59.24,59.24,0,0,0,9-.48c-8.26-1.71,9.24-2.34,6.85-3.91,11.3-.42,7.06,3.81,18.86,1.36-1.94-.41,3.63-1.6-3.49-1.15,7,.18,4.78-1.57,13.07-.92-6.15.65,6.59,1.59-2.29,2.52.6-.52-4.95-.39-6.31-.25,2.9.6-.6,1.58,6.6,1.58,4.39-.15,10.41-.18,9.54-1-.19-.89-6.71.1-3.89-.81,8.75-.31,10.2,1,13.83-.53-5.53.12-6.91-.8-6.81-1.42l6.43-.37-1.25.59c10.3.43,3-1.07,13-.92l4.68,1.18c-2.38,1-14.52-.45-12.75,1.2,6.49.07,8.64-.77,14.77-.35l-4.57.33c2.32.06,4.64,2.24,13.89,1,4.78-.49,1.27-.58,1.39-1.2,10.41-.19,13.52-.82,20.24-.91-1.38,1.2,11.86.11,4.45,1.35-3.41-.71-18.48-.64-22.18.51,3.8,1.42-8.18-.2-10.42,1.24,8.36,0,8,1.44,9.3,2.36a41.68,41.68,0,0,0,6-.47c1-.87-2.06-.85-2.23-1.74a143,143,0,0,0,23.44-1.09c3.12.42,2.14,1.29-1.55,1.37,11.09-.26,23-.14,33.48.12-6.8-1.41,11.76-.33,7.11-1.5-5.64-.32-10.5-1.33-7.39-2,3.53.09-.11.62,1.36.92,4.5-.77,7,1.24,11.4,0-10.13.46-2,1.72-3.84,2.83,7.31-.62-.3.79,6.92.79,7.29-.62,16.23-1.1,24.33-1.34,10.17,1,25.75,0,34.83,0,4.75.55,1.54,1.81,6.7,2,6,0-4.49-1.35,4.46-.77l-.86.25c2.71-.3,16.43.84,19.08-1l-2.77,1.35a23.81,23.81,0,0,0,4.61-.33c.06.44,2,.85-.71,1.13,5.53.94,11.61-.15,17.61-.18l-3.86-.8c10.29-.63,17.18.16,27.13-.12l-.3.79,5.92-.47c-1.44.76,4,1.25,7.11.61l-15.39,1.93c-4.27-.47,4.67-.95,2-1.73-2.28-.67-11.49-.46-13,.3a33.91,33.91,0,0,0,6.43-.37c1.17,1.09-4.19,1-6.83,1.78,1.84,0,4.47.28,4.86-.06a94.74,94.74,0,0,1-13.33.64c4.1-.42-2.22-.67-.67-1-.49,1-6.25,1.26-13.72,1-5.34-1.11-14,.72-22.68.41a70,70,0,0,1,13.26-2.15c-5.43-.49-6,0-11.49-.47a37.79,37.79,0,0,1-11.6,2.29l-.38-.72c-6.43.36-6.43,1.43-14.61,1.23l-39.1-.45-.41-.71c-5.94,1.53-19.82.56-27.82,1.25-13.63-.69-29.59.68-36.58-.55-24,.55-45.06,1.09-70,.82l4.19-1c-4.46.77-2.9-.6-7.27-.45,5,.84-6.07,1.09-9.16,1.73-11.09-.82-25.33.07-35.16.8l-.38-.72c-9.94,1.35-21.8.17-34.18-.05a26.83,26.83,0,0,0-7.35-.89c-6.71,1.16-10.23,1.07-20.07,1.8-7.19,0-18.86-.29-26.17-.74-27.06,1.63-54.7.59-82.81,1.57l-2-.84c-27.27,1.8-60.8.16-84.08,1.09l2.25-1.45c-7.29-.44-16.63.38-14.77,1.41-7.32-.45-18.26.7-22.9-.49-7.48-.27-9.16.67-15.37.86l-11.32-.32-14.65,0c-.06-5.19-.13-11.15-.23-19.07l-.09,3.49c.32,1.55.94,1.68,1-1.83-.4-5.24.39-19.32-1.34-14.09,1-15-.81-35.07.54-49.7-.48,1.25-.57-2.45-.88-4,0-13.19.94-27.06.14-37.6.23-2.1.8,3.35.85-2-.18-3.18-.62-.08-.88-4-.88-21.37.9-43.28.68-62.72-.91-34.55-.45-70.6-.61-103.71l.35.38c-1.32-11.08,1.36-26-.64-34.85.33-.74.16-15.1.83-11.11-.08-1.93-.15-3.9-.23-6h13.23l8.74.23a157.83,157.83,0,0,0,17.88-.31,18.18,18.18,0,0,0-3.2.19c12.91.76,24.31-.29,37.94.4-1.39.15-3.9.26-4.3.61,5.26.66,12.47-1.46,15.37.2,3,0,2.14-.83.29-.78,29.85.64,61.71-.42,92.76-.8,22.26,1,1.36,2.8,18.92,1.56,1.44.32,1-.63,1.29-.29,6.79-.46,10.57,1.86,15.29,1-1.94-1,3.14-.57,3.28-1.2,13.61.67,16.34,1.59,27.08.81l-.81.54c12.6-1.52,27.18-.7,37.81-2.46L610.83,308c67.12.59,132-1,200.83,1,8.25.87,12.51,2.49,17.09,3.11a183.67,183.67,0,0,1,18.15,3.63c-.77,0-1.88-.19-.77.32,1.29-1.18,12.24,3.52,14.18,3.26,24.37,9.3,45.45,22.12,64.51,41.12-3.1-2.91-5.43-3.55-1.63-.26l4.11,3.36.34.86c2.44,2.42,5.41,4.84,3.28,1.94a156.34,156.34,0,0,1,28.18,41.85,158.74,158.74,0,0,1,14.32,48c5,33-.28,66.92-13.18,97.19-6.44,14.3-18.22,33.35-29.55,46.12-35.15,36.29-79.88,55.34-130.59,56.93a31.63,31.63,0,0,1,5.88-1.88C810.19,653.43,817,652.63,827,650.41Z" transform="translate(-124.95 -307.93)"/><path class="cls-1" d="M785.09,653.45c-1.73-.58-7.39-.9-2.88-1.68C782.77,652.32,785.69,652.93,785.09,653.45Z" transform="translate(-124.95 -307.93)"/><path class="cls-1" d="M634.07,647.48a10.08,10.08,0,0,1-2.63-.34c1.86,0,3.6-.53,5.08-.23A4.65,4.65,0,0,0,634.07,647.48Z" transform="translate(-124.95 -307.93)"/><path class="cls-1" d="M595.46,647.13c.57-.52,8.84-.93,13.72-1Z" transform="translate(-124.95 -307.93)"/><path class="cls-1" d="M559.48,645c-3.12-.44-2.25-.68,1.93-.66C561.72,644.61,560.33,644.75,559.48,645Z" transform="translate(-124.95 -307.93)"/><path class="cls-1" d="M556.92,646.18a25.47,25.47,0,0,1-5.93-.59C551.11,646,557.92,645.31,556.92,646.18Z" transform="translate(-124.95 -307.93)"/><path class="cls-1" d="M478.81,644.67c-1.88,0-5.94.47-7.69-.1C473.08,645,480.26,643.91,478.81,644.67Z" transform="translate(-124.95 -307.93)"/><path class="cls-1" d="M442.51,645.46a16.94,16.94,0,0,0-3,0c-2.15-.24.12-.61,1.94-.66Z" transform="translate(-124.95 -307.93)"/><polygon class="cls-1" points="19.26 11.42 15.34 11.68 15.91 11.17 19.26 11.42"/><path class="cls-1" d="M433.76,319.32c3.92-.32,2.73.49,3.38.56C433.6,319.94,438.45,319.25,433.76,319.32Z" transform="translate(-124.95 -307.93)"/><polygon class="cls-1" points="464.94 8.82 463.75 8.83 464.16 7.77 464.94 8.82"/></svg>