<svg id="Layer_1" data-name="Layer 1" xmlns="http://www.w3.org/2000/svg" viewBox="0 0 561.74 423.52"><defs><style>.cls-1{fill:#fff;}</style></defs><path class="cls-1" d="M614.84,350.1c-7.65.95-15.28-1-23.86-1h-4.77c-11.46,1-22.92,2.86-34.37,4.76h-.94a161.34,161.34,0,0,0-38.19,10.48C430.65,390.1,372.43,453,369.56,530.11c-1.9,18.1,1.92,35.24,5.73,52.38,5.73,17.15,13.37,32.39,23.86,42.86,1,1.91,1,2.86,1.92,3.81,2.85,6.67,6.68,9.53,9.53,15.24l-5.73,12.38L359.08,752,549,724.41c20,1.9,42.94,7.62,64.88,7.62l7.65,1.9C748.43,738.69,842,654.88,845.77,552,851.5,446.3,747.49,355.82,614.84,350.1Zm12.4,353.35c-2.87-1-5.72-1-9.55,1-8.58-1.91-21-5.72-33.4-5.72-12.41-2.86-23.86-5.71-40.07-6.67l-6.68,1.91L531.81,692,419.2,712l12.41-25.71,9.53-22.86L446.87,652l-3.81-5.71L424,622.5l-1-1c-4.77-7.62-12.41-16.19-16.22-23.81-11.45-18.09-21-42.86-17.18-70.48C393.42,446.3,476.45,381.53,583.33,373c3.82,0,8.6-.95,12.41-.95,5.73-.95,12.41-.95,19.1-.95,2.85,0,6.68,0,9.53.95,12.41.95,24.81,1.9,37.22,4.76,99.25,21,169.87,92.39,166,170.48C823.83,641.55,737,708.22,627.24,703.45Z" transform="translate(-284.26 -328.51)"/><path class="cls-1" d="M586.21,349.15c-33.41-16.19-73.5-22.86-115.49-20-6.68,1-13.36,0-20,1-21.95,3.81-44.84,9.52-63.94,20.95-64.89,28.58-106.88,85.72-102.11,149.54,0,15.23,4.77,29.52,9.55,42.85,6.67,14.29,14.31,25.72,23.86,33.34,3.81,7.62,7.63,10.48,11.45,15.24L298,685.36l106.88-28.58,38.19-10.47L424,622.5l-22.9,6.66L343.8,646.31l7.63-21.91,4.77-20,3.83-9.52-22-23.81c-4.77-5.72-11.45-11.43-16.22-17.15-11.44-14.28-21-34.29-21-57.14C297,429.15,359.08,368.2,445.91,351.05c8.6-1.9,16.22-3.81,26.73-4.76,13.35-1,25.76-1.9,39.12,0a177.76,177.76,0,0,1,39.14,7.62h.94c16.23,4.76,30.54,10.48,43.9,18.1,5.73-.95,12.41-.95,19.1-.95,2.85,0,6.68,0,9.53.95C612.92,363.44,600.51,354.86,586.21,349.15Z" transform="translate(-284.26 -328.51)"/></svg>