<svg id="Layer_1" data-name="Layer 1" xmlns="http://www.w3.org/2000/svg" viewBox="0 0 447.15 458.88"><defs><style>.cls-1{fill:#93d2c0;}</style></defs><path class="cls-1" d="M753.43,739.76c6.52-.17-3.51-.65,4.26-.29A9.45,9.45,0,0,1,753.43,739.76Z" transform="translate(-316.15 -283.12)"/><path class="cls-1" d="M758.64,716.79c-1.94-20.93,0-48.51-1.22-71.45-.08-2.69,1.07.69.81-5.37-1.5-22.23-.61-57.27.55-84.34l.3,1.64c.22-5.16-.77-11.46-.63-16.92.2-.05.28,1.75.55.48-.6-1.38-.28-9.88-.72-12.2.23-2.16.71-2,1-4.74l-.68-3.13c-1.63-8.69.11-21.12-.73-33,.16.57.28,1.74.44.8-1-19.05-.81-42.88-1.17-64.19.24.85.68,1.64.95.39-.71-1-.9-7.63-1-13.34.74-2.57-.67-9.79-.27-16.48l.17.56c-.78-4.95.45-7.34-.48-11.35L757,381c-1-2.18.54-7.16,0-11.25l-.22.13c-.25-3.86.27-5.86.1-9.44l.12-.34c-.28-8.38.31-13.25-.51-13,.65-2.94.3,8.11,1.25,3.51-.63-20.17-.7-42-.7-61.49h-21c-3.16-.33-5.17-.43-5.88-.73-2.77.16-10.46.15-13,.56.93,0-1.8-.41-3.27-.45-5-.31-5.52.89-11.07.52,2.21-.21,3-.47,2.22-.77-4.74.63-11.07.53-16.67.73.87-.13,2.23-.21,2-.47-6.12.72-11.17-.15-16.53.3l2-.47c-8.64-.57-2.55,1-10,.65,1.79-.15,1.16-.34,1.48-.53-7,.86-18.23.58-25.19.86.41-.06.3-.19.3-.19-7.57.11-15.48-.16-23.82.21-3-.2,1-1.14-7-1,.29.94-13.61.39-8.88,1.46-6.85-.16-17.68-.51-22.24-.19,3.08-.36-3.34-1.15,2.35-1.23l-4.3-.57c.64-.39,4.43.13,3.06-.36-2.86,0-11.17.41-13.71.26-5.28.58-10.14,1.65-18.69,1.77,4-.36-2.29-1,.44-1.2l-11.93,1.81c-2.85,0-.62-.75-4.74-.5.22.25-1.57.4-2.83.6-1.07-.1-11.83.24-13.07-.69-1.25-.36,4.64-.19,1.49-.52l-10.75.34-.1-.13c-3.48-.13-10.24.4-6.46.91,2.42,0-.91-.56,2.66-.29-2.45.54-8.56.69-13.81.7a4.42,4.42,0,0,0,2.3-.66c-7.07.73-14.56,1-22.45,1.27-.12.44,2.94-.81,4.11-.57-10.12-.61-20.89.86-29.3,0,1.38-.08.74.63.65.5-4.87,0-4.66-.69-7.83-.45-.31-.38-4,.12-7.25.23-1.69.27-.85-.18,2-.23-4.55.32-22.77.9-33.29.35.21.25-6.46.91-8.88.89l.95-.58c-2.21-.35-8.1,0-8.51-.45-5.17.7,19.89-.6,12.9-.06-1.8-.48-9.73.93-8.22.14-4.86,0-9.57.67-14.21.13,1.35.09,3.94-.8,0-.77-6.9.11-2,.28-7.56.48l-3.51.23c-.24.57-6.18-.07-3.61.56-.85-.47-10,.28-9.33-.65l1-.74c-3,.06-4.89.78-7.24,1.1-.38-.06-1.17-.21-1-.33-.48,1.13-7.13-.1-10.67.78l-7.5-.25c-.05.83-.09,1.61-.13,2.35a22.92,22.92,0,0,1-.36,3.15,119.12,119.12,0,0,1,.5,14.67,11.48,11.48,0,0,0-.38-2.9,35.07,35.07,0,0,0,.15,7.43c-.17-.7-.66,6.88-1.07,10.71.34,4.77.95,3.13,1.33,3.61-1.12,4.37.71,13.48-.3,18.94-.15-1.65-.54-7-.82-3-1.12,4.36.82,8.8.28,15.84l.93-1.73c-.57,3.13.54,10.35-.41,9.64.34,2.35-.3,8.29.6,7.51-.76,11.56.46,28.1-1.16,35.21.15,1.65,0,5.79.46,4.94.5-2.75-.36-3.84,0-4.86,0,1.48.27,1.81.4,2-.21,3.59-.28,6.42-1,3-.55,8,1.54,8.24,1.19,18.41-.38-.46-.52.31-.46,3.29l.64,5.65c-.15,6.57-.85,3.73-1.49,3.89.11,3.52.08,7.82.56,9.41l-.8,4.27c.58-3.1.38,2.89.54,4.55l-.16-1.66c-.26.66-.1,4.72,0,6.77.39-.48.55-4.63.66-6.89.21,2.58.3,3.8.55,7-.63-.79-.45,5.73-.51,8.52-.13,3.21.56,3.61.53,4.55-.32.08-.05,5.23-.5,2.73-.1-1.09.31-2.5,0-4.3-.24,2.11-.8,1.87-.39,6.25.3,3.3,1.22-.85.83,5.41a25.7,25.7,0,0,0-.62-3.22l-.33,5.87.57.25c-.15.79-.19.24-.27.61.59,1.75.18,9,.85,10.28.06,3-.39,6.24-.45,9.06l-.05-.54a54.58,54.58,0,0,0,.27,11l-.13-.16a72.5,72.5,0,0,0,.38,8.71c-.43,4.77-2.14,1.61-1.43,6.88,0,4.84,1,7.58,1.4,5.63-.38,8.7.54,18.57-.33,26.63a9.33,9.33,0,0,1,.5,3c-.22,12.77.67,27-.44,37.12-.24-3.71-.56-.25-.89-.17.51,3.05-.52,3.67.35,4.77.51-.31.76,0,1-3.6.28,7.61.28,19.19-.2,23.42.24-2.11.39-.48.54,1.19-.81-.56-.93,5.06-.65,9.31l.5.6-.51,2.76c.16,1.63,1,1.8.57,6a2.1,2.1,0,0,0-.53,1.24c.4,4.39,1.09,10.59.67,15.36l-.72,3.9c.07,2,.51,5.47.72,1.88-.44,8.14-.49,13.39-1.12,16,.59,5.4,1,11.74,1.19,18.42.11,5.51.22,11,.33,16.27l7.54,0-.48.37c4.38.35,2.27-.65,5.33-.39-1.42.35,3.35.77-.1,1.2,6.27.39,8.09-.64,12.17-.81.62-.49-3.28.31-2.49-.31.7-.17,8.68.38,9.66-.35,1.57.29.34.83-.5,1.13l3.83-.36c4.69.86-10.68,1.54-5.77,2.6l3.55-.12c3.36.78-9.36.88-.49,1.14,3.85-.36,7.15-1.43,3.72-1.76,8-.2,3.71-1.76,12.32-1.7,2.36.44-6.89.11-5.24.71,4.06.6,8.15-.33,11.76-.12-4-.28-.62-1,2-1.16,4.39.35-2.84.7,3.36.78,1-.43,6.73-.75,1.8-1,2.24-1,6.46.26,9.84-.48,2,.67-6.4,1.57.43,1.91-1.08-.66,8.41-.89,4.81-1.87,2.67.19,2.95.71,1,1.11,3.82.4,9.27-1.19,10.52.1l1.31-.67,4.86.75c3.37,0,10.85-.91,10.54.1,1.08-.1,8.76-.06,5.8-.76-4.78-.42-5.49.52-8.15-.43,3.37.77,6.88-.1,9.65-.36l.45.39c1.64-.15,5.43-.07,6.45-.49-1.26.23-.61.49.71.59l1.72-.6c6.68-.29,1.57,1.05,8.07.88l-4.93.46c1.08-.1,3.29.45,6.4.27l4.52-1.62c3.66-.24,1.64.61,5.24.06l-4.72.65c-.71.18,3.19.9,8.08.88,3.12-.18,8-1,3-1.26,2.46,0,5.9.32,3.95.71,5.56-.18-.73-.58,4.07-.92l11.76,1.4-5,.91h3.33c-4.31.72,2.18.56-.24,1.32a54,54,0,0,0,7.22-.34c-6.65-1.23,7.45-1.68,5.52-2.8,9.11-.3,5.69,2.72,15.2,1-1.56-.29,2.93-1.14-2.81-.82,5.66.12,3.85-1.12,10.53-.66-4.95.46,5.31,1.14-1.84,1.8.48-.37-4-.28-5.09-.17,2.34.43-.48,1.12,5.32,1.12,3.54-.1,8.39-.12,7.69-.71-.15-.64-5.4.07-3.14-.58,7.06-.22,8.23.76,11.15-.38-4.45.09-5.56-.57-5.49-1l5.19-.27-1,.43c8.3.3,2.45-.78,10.5-.66l3.78.84c-1.92.72-11.71-.32-10.28.85,5.23.06,7-.55,11.9-.24l-3.68.23c1.87.05,3.74,1.61,11.2.69,3.85-.35,1-.42,1.11-.86l16.32-.65c-1.11.86,9.56.08,3.59,1-2.75-.5-14.9-.45-17.88.37,3.06,1-6.59-.14-8.4.89,6.74,0,6.42,1,7.5,1.69a35.87,35.87,0,0,0,4.8-.34c.79-.62-1.65-.61-1.8-1.25a127.72,127.72,0,0,0,18.9-.78c2.51.31,1.72.93-1.26,1,8.95-.19,18.51-.1,27,.09-5.49-1,9.47-.24,5.73-1.08-4.55-.23-8.47-1-6-1.4,2.85.06-.09.44,1.1.65,3.62-.55,5.63.89,9.19,0-8.17.33-1.59,1.23-3.1,2,5.9-.45-.25.56,5.57.56,5.88-.44,13.09-.79,19.62-1,8.19.75,20.75,0,28.08,0,3.82.41,1.23,1.3,5.39,1.46,4.87,0-3.62-1,3.6-.56l-.69.18c2.18-.21,13.23.61,15.37-.68l-2.23,1a22.51,22.51,0,0,0,3.71-.23c.06.31,1.63.6-.57.8,4.46.67,9.36-.1,14.2-.13l-3.11-.57c8.3-.45,13.85.12,21.86-.09l-.23.57,4.76-.34c-1.16.55,3.22.9,5.74.44l-12.41,1.38c-3.44-.33,3.77-.68,1.61-1.24-1.84-.48-9.27-.33-10.47.21a29.65,29.65,0,0,0,5.19-.26c.94.78-3.38.75-5.51,1.27,1.48,0,3.6.21,3.92,0a83.56,83.56,0,0,1-10.74.46c3.3-.3-1.8-.48-.55-.7-.39.68-5,.9-11.06.7-4.3-.79-11.3.51-18.28.3a62.47,62.47,0,0,1,10.69-1.54l-9.26-.34a33.72,33.72,0,0,1-9.35,1.64l-.31-.52c-5.18.26-5.18,1-11.77.89L630.31,740l-.33-.52c-4.79,1.1-16,.41-22.42.9-11-.5-23.86.49-29.49-.39-19.38.39-36.32.78-56.39.59l3.37-.75c-3.6.55-2.34-.43-5.86-.32,4,.6-4.89.78-7.38,1.23-8.94-.58-20.42.06-28.34.58l-.31-.51c-8,1-17.57.11-27.55,0a23.71,23.71,0,0,0-5.92-.64c-5.41.83-8.25.77-16.18,1.29-5.8,0-15.21-.21-21.1-.53-21.81,1.17-44.08.42-66.75,1.12l-1.63-.6-11.43.46-15.53.17c0-9.14,0-18.32.05-27-.07-7.48-.14-14.37-.21-20.9l1,1.8c.32-5.86-.27-13.37-1-11.88.32-5.89-.5-14.68.35-18.42.19-6-.48-7.36-.62-12.36.4-12,.31-16.52.11-27.87l-.06,2.81c.23,1.25.67,1.36.73-1.47-.28-4.23.28-15.57-.95-11.36.71-12.12-.58-28.27.38-40.06-.34,1-.4-2-.63-3.22,0-10.64.67-21.82.1-30.3.17-1.7.57,2.69.61-1.64-.13-2.56-.44-.06-.63-3.21-.63-17.23.65-34.89.48-50.56-.65-27.85-.32-56.9-.43-83.59l.25.3c-.95-8.93,1-21-.46-28.09.24-2.11.12-8.07.59-6.5-.67-7.12.63-19.93-.21-30.21a16.87,16.87,0,0,0,.13,2.58c.55-10.39-.2-19.56.29-30.52a17.56,17.56,0,0,0,.43,3.46c.48-4.23-1-10,.15-12.37,0-2.42-.6-1.72-.56-.23.05-5.39.09-10.75.14-16.22l65.63-.71c17.94.72,1.09,2,15.25,1.12,1.16.23.84-.45,1-.21,5.48-.33,8.53,1.34,12.34.71-1.57-.73,2.52-.41,2.64-.85,11,.47,13.17,1.13,21.83.58l-.66.38c10.15-1.09,21.91-.51,30.47-1.76l164.18-1.07,133.16.07c-.09,12.68-.19,25.7-.28,38.89-1,12.81-1,13.77-.58,27.84-.16-.57-.2-1.45-.35-.51.83.7.07,9.91.87,11.25,0,20.27.05,38.83.08,59.62-.09-3.29-.77-4.94-.72-1l.54,4.09-.24.67c.13,2.67.54,5.58.8,2.83.72,52.23-1,103.62-.74,154.78-.35,12.15,0,29.44.14,42.64-1.11,39.13-2,74.39-1.23,114.14C761.29,738.39,759.14,733.2,758.64,716.79Z" transform="translate(-316.15 -283.12)"/><path class="cls-1" d="M745.59,739.84c-1.39-.41-6-.64-2.32-1.19C743.72,739,746.07,739.47,745.59,739.84Z" transform="translate(-316.15 -283.12)"/><path class="cls-1" d="M623.86,735.57a9.27,9.27,0,0,1-2.12-.24,24.69,24.69,0,0,1,4.1-.17A4.15,4.15,0,0,0,623.86,735.57Z" transform="translate(-316.15 -283.12)"/><path class="cls-1" d="M592.74,735.32c.46-.37,7.13-.67,11.06-.71Z" transform="translate(-316.15 -283.12)"/><path class="cls-1" d="M563.74,733.79c-2.51-.31-1.82-.48,1.56-.47C565.55,733.52,564.43,733.62,563.74,733.79Z" transform="translate(-316.15 -283.12)"/><path class="cls-1" d="M561.68,734.64a23.54,23.54,0,0,1-4.79-.42C557,734.53,562.48,734,561.68,734.64Z" transform="translate(-316.15 -283.12)"/><path class="cls-1" d="M498.72,733.56c-1.52,0-4.79.34-6.2-.07C494.1,733.77,499.88,733,498.72,733.56Z" transform="translate(-316.15 -283.12)"/><path class="cls-1" d="M469.46,734.12a15.2,15.2,0,0,0-2.43,0c-1.74-.17.09-.44,1.56-.47Z" transform="translate(-316.15 -283.12)"/><polygon class="cls-1" points="7.32 72.19 7.5 75.34 7.14 74.88 7.32 72.19"/><path class="cls-1" d="M487.12,291.25c3.16-.24,2.2.34,2.72.4C487,291.68,490.89,291.19,487.12,291.25Z" transform="translate(-316.15 -283.12)"/><polygon class="cls-1" points="296.81 6.28 295.86 6.29 296.18 5.54 296.81 6.28"/></svg>