<svg id="Layer_1" data-name="Layer 1" xmlns="http://www.w3.org/2000/svg" viewBox="0 0 548.77 505.76"><defs><style>.cls-1{fill:#fff;}</style></defs><path class="cls-1" d="M450.27,291C313.8,352.53,253.09,512.86,315,649.75c3.37,7.45,6.75,14.91,10.8,22.06,4.36,7.82,12.79,13.81,21.42,14.81a30.15,30.15,0,0,0,7.64.64l-3.37-7.45a11.89,11.89,0,0,1-8.25-2c-4.93-1.85-8.81-5-11-9.75-4.05-7.14-8.1-14.29-11.17-21.07C261,514.18,320.63,356.8,453,297.12c133.08-60,290.77-.51,350.87,132.31,3.07,6.77,5.76,14.54,8.45,22.3a22.74,22.74,0,0,1-5.3,24.42,22.31,22.31,0,0,1-6.17,4.41l3.06,6.77a26.74,26.74,0,0,0,6.18-4.41,32,32,0,0,0,9.32-33.58c-2.68-7.76-6.36-15.89-9.43-22.66C748.07,289.79,587.42,229.21,450.27,291Zm14.42,31.85c-102.53,46.2-156.33,158.56-132.86,264.64-.14,3.32.79,5.36,2,8.06a22.19,22.19,0,0,1,5.56-5.76,26.11,26.11,0,0,1-1.7-7.4c-20-101.94,31.58-208.4,130-252.76,99.8-45,215.89-12.46,278.57,71.87a37.85,37.85,0,0,1,5.34,8.2,17.39,17.39,0,0,1,11.83,4.47,37.65,37.65,0,0,0-7.25-10.61C692.84,312.25,569.92,275.45,464.69,322.88Z" transform="translate(-290.75 -266.81)"/><path class="cls-1" d="M344.87,578.38a30.2,30.2,0,0,0-7.16,4c-1.74,1.6-4.15,3.5-5.88,5.1a42.19,42.19,0,0,0-8.19,46.92l51.21,113.17A42.46,42.46,0,0,0,431,768.79c21.05-9.49,30.73-35,21.23-56.06l-51.2-113.16A42.48,42.48,0,0,0,344.87,578.38ZM445.46,715.79c8,17.61.45,39-17.2,46.9s-39.33-.21-47.3-17.83L329.75,631.69a35.34,35.34,0,0,1,4.1-36.11,22.19,22.19,0,0,1,5.56-5.76,43.23,43.23,0,0,1,8.21-5.34c17.66-8,38.36-.15,46.63,18.14Z" transform="translate(-290.75 -266.81)"/><path class="cls-1" d="M756.24,403.59a33.19,33.19,0,0,0-9.92-2.06,52.12,52.12,0,0,0-18.51,4.26,42.33,42.33,0,0,0-21.23,56.07L757.79,575c9.51,21,35.13,30.66,56.18,21.18,21.73-9.79,31.41-35.36,21.9-56.36L784.66,426.68C779.15,414.47,768.81,406.09,756.24,403.59ZM829.08,542.9a35.67,35.67,0,0,1-17.87,47.21c-17.65,8-38.66-.52-46.63-18.14L713.37,458.81c-8.27-18.3-.45-39,17.2-46.92a32.86,32.86,0,0,1,21.09-2.16,17.39,17.39,0,0,1,11.83,4.47,32.57,32.57,0,0,1,14.38,15.53Z" transform="translate(-290.75 -266.81)"/></svg>