<svg id="Layer_1" data-name="Layer 1" xmlns="http://www.w3.org/2000/svg" viewBox="0 0 533.02 459.82"><defs><style>.cls-1{fill:#fff;}</style></defs><path class="cls-1" d="M736.15,633.67H334.58a17.5,17.5,0,0,1-17.51-17.46V303.65a17.51,17.51,0,0,1,17.51-17.47H736.15a17.51,17.51,0,0,1,17.5,17.47V616.21A17.5,17.5,0,0,1,736.15,633.67ZM334.58,290a13.72,13.72,0,0,0-13.72,13.69V616.21a13.73,13.73,0,0,0,13.72,13.7H736.15a13.73,13.73,0,0,0,13.72-13.7V303.65A13.72,13.72,0,0,0,736.15,290Z" transform="translate(-273.23 -286.18)"/><path class="cls-1" d="M709.63,598.64H366.68A2.7,2.7,0,0,1,364,596v-272a2.69,2.69,0,0,1,2.69-2.68h343a2.68,2.68,0,0,1,2.69,2.68V596A2.69,2.69,0,0,1,709.63,598.64Zm-341.86-3.78H708.55V325H367.77Z" transform="translate(-273.23 -286.18)"/><path class="cls-1" d="M795.75,746h-512c-3.36,0-6.29-2.13-8.26-6-3-5.92-3.35-15.8,1.26-22.06l44-59.72c1.91-2.58,4.4-4,7-4H751.4a8.81,8.81,0,0,1,7,4l44.35,59.72C807.36,724.13,807,734,804,740,802.06,743.86,799.12,746,795.75,746Zm-468-88a5.17,5.17,0,0,0-4,2.47l-44,59.71c-3.71,5-3.37,13.33-.94,18.13.75,1.47,2.37,3.94,4.89,3.94h512c2.52,0,4.16-2.48,4.9-4,2.43-4.82,2.75-13.13-1-18.14l-44.36-59.71A5.13,5.13,0,0,0,751.4,658Z" transform="translate(-273.23 -286.18)"/><path class="cls-1" d="M601.45,734.68H453.3a4,4,0,0,1-3.47-2.35,8.94,8.94,0,0,1,.32-8.47l12.73-18.76a3.83,3.83,0,0,1,3.15-1.85H588.62a3.81,3.81,0,0,1,3.14,1.83l12.83,18.76a8.87,8.87,0,0,1,.33,8.48A4,4,0,0,1,601.45,734.68Zm-148-3.77H601.34a2.85,2.85,0,0,0,.6-1.42,4.92,4.92,0,0,0-.47-3.52L588.64,707.2a1.14,1.14,0,0,0-.15-.18H466.17a1.34,1.34,0,0,0-.16.19L453.28,726a5,5,0,0,0-.47,3.53A3,3,0,0,0,453.41,730.91Z" transform="translate(-273.23 -286.18)"/></svg>